<svg height="736.67681" viewBox="0 0 648.60069 736.67681" width="648.60069" xmlns="http://www.w3.org/2000/svg"><ellipse cx="610.96096" cy="812.82349" fill="#e6e6e6" rx="5.51263" ry="98.0657" transform="matrix(.001605 -.99999871 .99999871 .001605 -478.54174 1340.81747)"/><path d="m598.57568 615.54492a250.68464 250.68464 0 1 1 177.26026-73.42383 249.04472 249.04472 0 0 1 -177.26026 73.42383zm0-499.36865c-137.125 0-248.68408 111.55908-248.68408 248.68408s111.55908 248.68457 248.68408 248.68457c137.12452 0 248.68409-111.55957 248.68409-248.68457s-111.55957-248.68408-248.68409-248.68408z" fill="#e6e6e6" transform="translate(-275.69966 -81.66159)"/><path d="m163.92283 291.28877h19.02674v65.86179h-19.02674z" fill="#3f3d56"/><path d="m195.515 344.761-46.276-55.053-92.89.849-56.349 54.885 1.139.732h-.407v114.16h194.658v-114.16z" fill="#3f3d56"/><path d="m149.287 289.825-57.812 67.778v102.731h103.915v-115.624z" fill="#fece2f"/><path d="m133.18731 403.52263h21.22214v18.75793h-21.22214z" fill="#3f3d56"/><path d="m133.18731 371.05471h21.22214v18.46045h-21.22214z" fill="#3f3d56"/><path d="m133.18731 403.52263h21.22214v18.75793h-21.22214z" fill="#fff"/><path d="m133.18731 371.05471h21.22214v18.46045h-21.22214z" fill="#fff"/><path d="m38.87462 398.54533h21.22215v18.75793h-21.22215z" fill="#3f3d56"/><path d="m38.87462 366.07742h21.22215v18.46045h-21.22215z" fill="#3f3d56"/><path d="m38.87462 398.54533h21.22215v18.75793h-21.22215z" fill="#fff"/><path d="m38.87462 366.07742h21.22215v18.46045h-21.22215z" fill="#fff"/><path d="m465.65112 1.58093h19.02674v65.86179h-19.02674z" fill="#3f3d56"/><path d="m453.211 56.466v180.158h194.658v-180.158h-.407l1.139-.732-56.349-54.885-92.89-.849-46.276 55.053z" fill="#3f3d56"/><path d="m453.211 55.002v181.622h103.915v-168.728l-57.812-67.779z" fill="#fece2f"/><path d="m494.19124 113.81479h21.22214v18.75793h-21.22214z" fill="#3f3d56"/><path d="m494.19124 81.34688h21.22214v18.46045h-21.22214z" fill="#3f3d56"/><path d="m494.19124 113.81479h21.22214v18.75793h-21.22214z" fill="#fff"/><path d="m494.19124 81.34688h21.22214v18.46045h-21.22214z" fill="#fff"/><path d="m588.50392 108.83749h21.22215v18.75793h-21.22215z" fill="#3f3d56"/><path d="m588.50392 76.36958h21.22215v18.46045h-21.22215z" fill="#3f3d56"/><path d="m588.50392 108.83749h21.22215v18.75793h-21.22215z" fill="#fff"/><path d="m588.50392 76.36958h21.22215v18.46045h-21.22215z" fill="#fff"/><path d="m494.19124 179.81225h21.22214v18.75793h-21.22214z" fill="#fff"/><path d="m494.19124 147.34433h21.22214v18.46045h-21.22214z" fill="#fff"/><path d="m588.50392 174.83494h21.22215v18.75793h-21.22215z" fill="#fff"/><path d="m588.50392 142.36703h21.22215v18.46045h-21.22215z" fill="#fff"/><circle cx="334.41991" cy="179.97807" fill="#a0616a" r="30.58812"/><path d="m578.70474 317.029 52.08248-.82671c-4.47987-12.344-6.4213-23.902-3.30682-33.89494l-39.68189-4.13354q8.04249 19.42758-9.09377 38.85519z" fill="#a0616a" transform="translate(-275.69966 -81.66159)"/><path d="m533.23591 522.05207 8.6487 23.0632a13.96613 13.96613 0 0 1 -11.38624 18.76725 13.96613 13.96613 0 0 1 -15.64647-14.40019l1.02321-26.60357 7.44036-136.40649 30.58812 9.09376z" fill="#a0616a" transform="translate(-275.69966 -81.66159)"/><path d="m289.778 696.669 24.801-2.48 22.321-216.597 31.415 220.731 23.148-.827 5.787-242.225h-110.779z" fill="#2f2e41"/><g transform="translate(-275.69966 -81.66159)"><path d="m646.49463 250.06578s-8.26706 18.18753-14.054 19.01424-15.70741 9.92047-14.054 14.054.82671 16.53412-15.70742 14.88071-15.70741-3.30682-15.70741-3.30682-26.45459-50.42907.82671-63.65637 51.25577-3.30682 58.69612 19.01424z" fill="#2f2e41"/><path d="m668.427 767.32533-.99365 20.86654s15.14469 23.62066-3.73456 23.62066c-.18879 0 .18641.00059 0 0-13.65339-.04323-25.99342 6.10144-24.3794-7.45628l2.2792-19.14531 3.97458-20.86654z" fill="#2f2e41"/><path d="m565.68423 767.32533.99364 20.86654s-15.14469 23.62066 3.73456 23.62066c.1888 0-.18641.00059 0 0 13.6534-.04323 25.99342 6.10144 24.37941-7.45628l-2.27921-19.14531-3.97457-20.86654z" fill="#2f2e41"/><path d="m553.07685 546.85325 123.1792-5.78694c-22.97278-73.72-23.14272-134.041 5.78694-189.58558a29.74026 29.74026 0 0 0 -17.9743-27.31383l-35.76159-15.405-45.46874 2.4801-30.00246 16.50135a35.715 35.715 0 0 0 -18.45661 33.11965c26.26689 62.70319 27.76711 124.5331 18.69756 185.99025z" fill="#e6e6e6"/><path d="m575.39792 403.0064-68.61661-11.57389 11.3049-28.06733a73.96326 73.96326 0 0 1 44.77157-42.38384l6.75319-2.299z" fill="#e6e6e6"/><path d="m790.63436 339.90593 21.12184-8.80075a15.91941 15.91941 0 0 0 7.34454-23.18348 15.9194 15.9194 0 0 0 -25.54645-1.88069l-15.67316 18.2574-61.4352 44.0851-41.76339-17.336-4.97519 34.63933 52.17621 13.58949z" fill="#a0616a"/><path d="m679.30034 399.10317 34-32-9-11c-8.04381-19.97084-26.53769-28.18352-46.919-35.12183l-6.7532-2.299-5.32782 54.42079z" fill="#e6e6e6"/></g></svg>