<svg height="639.22428" viewBox="0 0 955.95262 639.22428" width="955.95262" xmlns="http://www.w3.org/2000/svg"><path d="m.30042.39886h703.57562v450.60114h-703.57562z" fill="#e6e6e6"/><path d="m20.419 56.91548h663.33851v171.77293h-663.33851z" fill="#fff"/><path d="m185.4182 81.72713h140.28123v8.05267h-140.28123z" fill="#e6e6e6"/><path d="m185.4182 111.10108h216.62477v8.05267h-216.62477z" fill="#fece2f"/><g fill="#e6e6e6"><path d="m185.4182 138.7756h176.54439v8.05267h-176.54439z"/><path d="m185.4182 166.34557h103.06377v8.05267h-103.06377z"/><path d="m185.4182 193.9155h155.54994v8.05267h-155.54994z"/><path d="m121.4805 78.86424h17.17729v17.17729h-17.17729z"/></g><path d="m121.4805 106.53877h17.17729v17.17729h-17.17729z" fill="#fece2f"/><path d="m121.4805 134.2133h17.17729v17.17729h-17.17729z" fill="#e6e6e6"/><path d="m121.4805 161.88783h17.17729v17.17729h-17.17729z" fill="#e6e6e6"/><path d="m121.4805 189.56235h17.17729v17.17729h-17.17729z" fill="#e6e6e6"/><path d="m533.73553 117.9903h57.25763v57.25764h-57.25763z" fill="#e6e6e6"/><path d="m20.419 252.54576h663.33851v171.77293h-663.33851z" fill="#fff"/><path d="m151.06361 267.81207h17.17729v17.17728h-17.17729z" fill="#e6e6e6"/><path d="m121.4805 267.81207h17.17729v17.17728h-17.17729z" fill="#fece2f"/><path d="m534.74755 435.76326a65.04556 65.04556 0 0 0 -105.003-9.69992l-4.18616-3.65793a70.59368 70.59368 0 0 1 113.973 10.52622z" fill="#e6e6e6" transform="translate(-122.02369 -130.38786)"/><path d="m537.36724 508.18169-4.6134-3.102a65.07765 65.07765 0 0 0 1.99371-69.31644l4.78387-2.83166a70.63742 70.63742 0 0 1 -2.16418 75.25012z" fill="#fece2f" transform="translate(-122.02369 -130.38786)"/><path d="m426.13766 515.92644a70.58952 70.58952 0 0 1 -.57926-93.52106l4.18616 3.65793a65.03087 65.03087 0 0 0 .53366 86.15415z" fill="#fece2f" transform="translate(-122.02369 -130.38786)"/><path d="m478.73772 539.44023a70.70869 70.70869 0 0 1 -52.6-23.51382l4.14056-3.709a65.04339 65.04339 0 0 0 102.47562-7.13779l4.6134 3.102a70.55387 70.55387 0 0 1 -58.62958 31.25861z" fill="#fece2f" transform="translate(-122.02369 -130.38786)"/><path d="m533.73553 305.03195h57.25763v57.25763h-57.25763z" fill="#e6e6e6"/><path d="m119.09476 342.24939h57.25764v57.25763h-57.25764z" fill="#e6e6e6"/><path d="m0 0h703.57562v29.89047h-703.57562z" fill="#fece2f"/><circle cx="22.21219" cy="15.28159" fill="#fff" r="5.53997"/><circle cx="43.24053" cy="15.28159" fill="#fff" r="5.53997"/><circle cx="64.26886" cy="15.28159" fill="#fff" r="5.53997"/><path d="m817.168 623.704h14.243l6.777-54.94-21.023.001z" fill="#ffb8b8"/><path d="m935.5583 749.44184 28.05079-.00113h.00113a17.87713 17.87713 0 0 1 17.87616 17.87587v.5809l-45.92723.00171z" fill="#2f2e41" transform="translate(-122.02369 -130.38786)"/><path d="m781.694 569.766 10.511 9.613 42.079-35.968-15.513-14.187z" fill="#ffb8b8"/><path d="m904.17525 694.2705 20.69975 18.9305.00084.00077a17.87711 17.87711 0 0 1 1.12667 25.25538l-.392.42866-33.89144-30.99481z" fill="#2f2e41" transform="translate(-122.02369 -130.38786)"/><path d="m839.555 430.772-4.037 80.739 10.093 87.805-30.278 4.037-19.175-111.017-6.056-75.694z" fill="#2f2e41"/><path d="m1009.01348 531.89159s12.111 79.73029-13.12018 105.97064-59.54541 72.66559-59.54541 72.66559l-24.22189-30.27734 61.5639-65.60089-12.111-44.40668-49.453-23.21265 8.074-55.50842 72.66559-1.00925z" fill="#2f2e41" transform="translate(-122.02369 -130.38786)"/><circle cx="831.41549" cy="192.09457" fill="#ffb8b8" r="24.71744"/><path d="m851.917 227.224 3.786 5.736 10.093 28.259-8.074 110.007-47.435 1.01-6.055-126.156 12.685-15.856z" fill="#ccc"/><path d="m907.07976 379.49569-8.074-1.00925s-2.01849 1.00925-3.02771 8.07394-13.12018 69.63785-13.12018 69.63785l16.14789 76.70258 18.16638-24.22187-11.10159-42.38824 11.10168-42.38828z" fill="#2f2e41" transform="translate(-122.02369 -130.38786)"/><path d="m887.999 248.099h6.055l15.139 81.748-14.129 63.583-14.13-23.213 4.037-25.231-2.018-22.203-7.065-13.121z" fill="#2f2e41"/><path d="m968.045 322.48242-4.49409-1.12353s-3.37053-19.09984-11.23522-16.8528-28.088 4.49409-28.088-4.49409 19.09985-16.8528 30.335-15.72928 25.58427 4.85076 29.21152 21.34686c5.81465 26.444-11.997 33.12341-11.997 33.12341l.29641-.96282a14.9957 14.9957 0 0 0 -4.02865-15.30775z" fill="#2f2e41" transform="translate(-122.02369 -130.38786)"/><path d="m900.01507 378.48644 32.29583-13.12018 7.56934-5.55084 22.708 100.4198 15.13867-45.416-4.54163-58.03155 41.88361 21.69876-14.12939 68.6286-2.0185 26.24036 6.05548 21.19412s21.19409 15.13867 14.1294 31.28656-15.13867 17.15716-15.13867 17.15716-34.31434-32.2958-36.33277-40.36978-5.0462-22.20337-5.0462-22.20337-17.15717 64.59165-37.342 63.58237-20.18488-22.20337-20.18488-22.20337l5.04621-22.20337 8.074-23.21261-4.037-38.35129z" fill="#2f2e41" transform="translate(-122.02369 -130.38786)"/><path d="m1076.97631 769.61214h-268a1 1 0 0 1 0-2h268a1 1 0 0 1 0 2z" fill="#ccc" transform="translate(-122.02369 -130.38786)"/></svg>